<svg xmlns="http://www.w3.org/2000/svg" fill="#F33041" viewBox="0 0 159 65"><path d="M157.8 57.3s1.2-7.9 1.2-24.8-1.2-24.8-1.2-24.8c-.5-3.1-3.4-6-6.5-6.5 0 0-7.9-1.2-24.8-1.2h-94C15.6 0 7.7 1.2 7.7 1.2c-3.1.5-6 3.4-6.5 6.5 0 0-1.2 7.9-1.2 24.8s1.2 24.8 1.2 24.8c.5 3.1 3.4 6 6.5 6.5 0 0 7.9 1.2 24.8 1.2h94c16.9 0 24.8-1.2 24.8-1.2 3.1-.5 6-3.3 6.5-6.5zM63.7 19.8l-.4 5.2-6.1 20.5c-.1.3-.4.5-.7.5h-4c-.4 0-.7-.3-.7-.5l-4.3-15.6-4.3 15.6c-.1.3-.4.5-.6.5h-4c-.3 0-.6-.3-.6-.5L31.8 25l-.6-5.1v-.1c0-.4.3-.8.8-.8h3.4c.4 0 .7.3.8.7l.4 5.3 3.9 14.4L44.8 24c.1-.3.4-.5.7-.5h3.6c.3 0 .6.3.6.5l4.6 15.3 4-14.6.4-5.3c0-.4.4-.7.8-.7h3.4c.4 0 .8.3.8.8v.3zm8.8 25.4c0 .4-.3.8-.8.8h-3.6c-.4 0-.8-.3-.8-.8V19.8c0-.4.3-.8.8-.8h3.6c.4 0 .8.3.8.8v25.4zm20.8-22.4c0 .4-.3.8-.8.8H81.9V30h9.8c.4 0 .8.3.8.8v3c0 .4-.3.8-.8.8h-9.8v6.9h10.7c.4 0 .8.3.8.8v3c0 .4-.3.8-.8.8H77.5c-.4 0-.8-.3-.8-.8V19.8c0-.4.3-.8.8-.8h15.1c.4 0 .8.3.8.8v3zm25.3 22.4h-.1c0 .4-.3.8-.8.8h-3.5c-.4 0-.5-.3-.8-.5l-12-17.5v17.3c0 .4-.3.8-.8.8h-3.4c-.4 0-.8-.3-.8-.8V19.8c0-.4.3-.8.8-.8h3.5c.4 0 .5.3.8.5l12 17.5V19.8c0-.4.3-.8.8-.8h3.5c.4 0 .8.3.8.8v25.4zm9.2 0c0 .4-.3.8-.8.8h-3.6c-.4 0-.8-.3-.8-.8V19.8c0-.4.3-.8.8-.8h3.6c.4 0 .8.3.8.8v25.4z"/></svg>
